<svg version="1.1" id="Layer_1" xmlns="http://www.w3.org/2000/svg" xmlns:xlink="http://www.w3.org/1999/xlink" x="0px" y="0px"
	 width="100%" viewBox="0 0 223 223" enable-background="new 0 0 223 223" xml:space="preserve">
<path fill="#E1693D" opacity="1.000000" stroke="none" 
	d="
M224.000000,103.000000 
	C224.000000,107.689255 224.000000,112.378510 223.665359,117.234055 
	C222.888107,118.731339 222.146072,120.043877 222.062607,121.397034 
	C221.863281,124.628281 222.667236,128.071320 221.829224,131.084900 
	C219.403976,139.806427 217.063690,148.663773 213.436005,156.916580 
	C204.469452,177.315094 189.678055,192.917389 170.870560,204.568436 
	C155.647552,213.998993 138.805450,219.065918 120.944511,219.926743 
	C100.922951,220.891678 81.964195,216.760971 64.143852,207.146408 
	C44.499748,196.547867 29.592646,181.418121 18.973673,161.962524 
	C12.434997,149.982651 8.398072,137.044098 7.659246,123.480362 
	C7.072861,112.715210 7.199725,101.737274 8.637844,91.073357 
	C11.317473,71.203392 20.431751,53.923450 33.584412,38.974148 
	C44.671116,26.373014 57.956535,16.573917 73.834129,10.581344 
	C84.862953,6.418809 96.075974,3.186916 108.215462,3.471459 
	C114.118401,6.172033 119.727921,5.506972 122.379379,2.250800 
	C128.563095,3.531492 134.357910,4.668834 140.123016,5.940876 
	C160.566818,10.451700 177.828171,20.420233 192.270142,35.638367 
	C209.585800,53.884632 221.014236,74.666046 222.082886,100.340927 
	C222.120804,101.252296 223.334366,102.114746 224.000000,103.000000 
M92.972687,82.199501 
	C92.614388,83.851891 92.256096,85.504280 91.311974,87.460060 
	C87.929642,94.041473 84.547310,100.622894 80.667641,108.172035 
	C74.732628,101.326889 69.466522,95.253227 63.358517,88.208557 
	C55.028851,109.782524 47.118591,130.270218 38.659954,152.178223 
	C53.318546,152.178223 66.709290,152.178223 80.616341,152.703201 
	C85.464111,154.490524 90.268257,155.191498 95.868256,152.119644 
	C103.233833,152.056580 110.599419,151.993515 118.484856,152.508942 
	C119.511787,152.967209 120.557068,153.859406 121.562820,153.816879 
	C132.034637,153.374161 142.500122,152.781204 153.908447,152.241257 
	C166.035309,152.241257 178.162186,152.241257 191.621872,152.241257 
	C185.958923,142.693909 180.987396,134.312241 175.834061,125.241806 
	C170.566559,116.155945 165.299042,107.070091 160.013367,97.234924 
	C159.412369,95.705284 158.970673,94.088058 158.185364,92.659767 
	C151.465958,80.438942 144.691223,68.248489 137.905777,56.064140 
	C137.451462,55.248344 136.775299,54.556107 135.855621,53.352764 
	C133.001282,57.184528 130.409134,60.664333 127.256523,64.896515 
	C122.393280,56.929211 117.983009,49.703991 113.168541,41.816570 
	C110.327293,47.237808 107.963333,51.748356 104.870277,55.865257 
	C99.205177,52.267929 93.351448,51.577808 87.627342,55.444355 
	C83.025795,58.552631 80.796150,63.276810 81.458626,68.741165 
	C82.273170,75.459793 86.195930,79.877258 92.972687,82.199501 
z"/>
<path fill="#000000" opacity="1.000000" stroke="none" 
	d="
M107.995583,3.168216 
	C96.075974,3.186916 84.862953,6.418809 73.834129,10.581344 
	C57.956535,16.573917 44.671116,26.373014 33.584412,38.974148 
	C20.431751,53.923450 11.317473,71.203392 8.637844,91.073357 
	C7.199725,101.737274 7.072861,112.715210 7.659246,123.480362 
	C8.398072,137.044098 12.434997,149.982651 18.973673,161.962524 
	C29.592646,181.418121 44.499748,196.547867 64.143852,207.146408 
	C81.964195,216.760971 100.922951,220.891678 120.944511,219.926743 
	C138.805450,219.065918 155.647552,213.998993 170.870560,204.568436 
	C189.678055,192.917389 204.469452,177.315094 213.436005,156.916580 
	C217.063690,148.663773 219.403976,139.806427 221.829224,131.084900 
	C222.667236,128.071320 221.863281,124.628281 222.062607,121.397034 
	C222.146072,120.043877 222.888107,118.731339 223.665359,117.700165 
	C224.000000,153.310242 224.000000,188.620499 224.000000,223.965363 
	C149.738342,223.965363 75.476646,223.965363 1.107482,223.965363 
	C1.107482,149.787033 1.107482,75.573845 1.107482,1.000000 
	C40.020153,1.000000 79.041420,1.000000 118.710846,1.407688 
	C115.571198,2.266323 111.783394,2.717269 107.995583,3.168216 
z"/>
<path fill="#000000" opacity="1.000000" stroke="none" 
	d="
M224.000000,102.531342 
	C223.334366,102.114746 222.120804,101.252296 222.082886,100.340927 
	C221.014236,74.666046 209.585800,53.884632 192.270142,35.638367 
	C177.828171,20.420233 160.566818,10.451700 140.123016,5.940876 
	C134.357910,4.668834 128.563095,3.531492 122.093872,1.952667 
	C121.603882,1.381977 121.801941,1.190988 122.000000,1.000000 
	C155.926941,1.000000 189.853867,1.000000 224.000000,1.000000 
	C224.000000,34.687244 224.000000,68.374962 224.000000,102.531342 
z"/>
<path fill="#E06222" opacity="1.000000" stroke="none" 
	d="
M121.625000,1.000000 
	C121.801941,1.190988 121.603882,1.381977 121.691338,1.871098 
	C119.727921,5.506972 114.118401,6.172033 108.215462,3.471459 
	C111.783394,2.717269 115.571198,2.266323 119.179504,1.407688 
	C119.750000,1.000000 120.500000,1.000000 121.625000,1.000000 
z"/>
<path fill="#E37E40" opacity="1.000000" stroke="none" 
	d="
M152.967361,152.229919 
	C142.500122,152.781204 132.034637,153.374161 121.562820,153.816879 
	C120.557068,153.859406 119.511787,152.967209 118.174042,151.841385 
	C117.302872,149.096558 116.778824,147.008698 116.176559,144.943649 
	C109.777008,123.000877 103.365036,101.061729 96.948532,78.700333 
	C96.915512,77.715294 96.890442,77.151520 96.902138,76.235611 
	C98.863304,71.941048 100.787712,67.998627 103.045738,64.183510 
	C122.263420,75.535294 141.147476,86.759766 160.031525,97.984238 
	C165.299042,107.070091 170.566559,116.155945 175.611450,125.463074 
	C151.502304,107.140068 127.615768,88.595787 103.729225,70.051506 
	C103.442032,70.376923 103.154831,70.702332 102.867638,71.027740 
	C119.567543,98.095131 136.267456,125.162521 152.967361,152.229919 
z"/>
<path fill="#6F5457" opacity="1.000000" stroke="none" 
	d="
M153.437897,152.235580 
	C136.267456,125.162521 119.567543,98.095131 102.867638,71.027740 
	C103.154831,70.702332 103.442032,70.376923 103.729225,70.051506 
	C127.615768,88.595787 151.502304,107.140068 175.702362,125.807465 
	C180.987396,134.312241 185.958923,142.693909 191.621872,152.241257 
	C178.162186,152.241257 166.035309,152.241257 153.437897,152.235580 
z"/>
<path fill="#6F5357" opacity="1.000000" stroke="none" 
	d="
M80.100029,152.178223 
	C66.709290,152.178223 53.318546,152.178223 38.659954,152.178223 
	C47.118591,130.270218 55.028851,109.782524 63.358517,88.208557 
	C69.466522,95.253227 74.732628,101.326889 80.667641,108.172035 
	C84.547310,100.622894 87.929642,94.041473 91.644615,87.726456 
	C88.018181,109.387978 84.059105,130.783096 80.100029,152.178223 
z"/>
<path fill="#715457" opacity="1.000000" stroke="none" 
	d="
M160.022446,97.609581 
	C141.147476,86.759766 122.263420,75.535294 103.116661,63.805676 
	C103.769096,60.953323 104.684227,58.606110 105.599365,56.258904 
	C107.963333,51.748356 110.327293,47.237808 113.168541,41.816570 
	C117.983009,49.703991 122.393280,56.929211 127.256523,64.896515 
	C130.409134,60.664333 133.001282,57.184528 135.855621,53.352764 
	C136.775299,54.556107 137.451462,55.248344 137.905777,56.064140 
	C144.691223,68.248489 151.465958,80.438942 158.185364,92.659767 
	C158.970673,94.088058 159.412369,95.705284 160.022446,97.609581 
z"/>
<path fill="#705457" opacity="1.000000" stroke="none" 
	d="
M96.956482,79.121590 
	C103.365036,101.061729 109.777008,123.000877 116.176559,144.943649 
	C116.778824,147.008698 117.302872,149.096558 117.914116,151.552139 
	C110.599419,151.993515 103.233833,152.056580 95.355713,151.647095 
	C94.843758,148.347168 94.807327,145.519257 94.850807,142.692551 
	C95.178169,121.409515 95.521271,100.126732 95.879623,78.856743 
	C95.899811,78.869621 95.865814,78.861511 96.138962,78.924530 
	C96.593567,79.032234 96.775024,79.076912 96.956482,79.121590 
z"/>
<path fill="#E27E41" opacity="1.000000" stroke="none" 
	d="
M95.859444,78.843864 
	C95.521271,100.126732 95.178169,121.409515 94.850807,142.692551 
	C94.807327,145.519257 94.843758,148.347168 94.882217,151.651642 
	C90.268257,155.191498 85.464111,154.490524 80.358185,152.440704 
	C84.059105,130.783096 88.018181,109.387978 91.937531,87.574760 
	C92.256096,85.504280 92.614388,83.851891 93.206161,81.604301 
	C94.246239,80.287361 95.052841,79.565613 95.859444,78.843864 
z"/>
<path fill="#F6BD5A" opacity="1.000000" stroke="none" 
	d="
M95.879623,78.856743 
	C95.052841,79.565613 94.246239,80.287361 93.202408,81.238327 
	C86.195930,79.877258 82.273170,75.459793 81.458626,68.741165 
	C80.796150,63.276810 83.025795,58.552631 87.627342,55.444355 
	C93.351448,51.577808 99.205177,52.267929 105.234818,56.062080 
	C104.684227,58.606110 103.769096,60.953323 102.783035,63.678371 
	C100.787712,67.998627 98.863304,71.941048 96.694733,76.482948 
	C96.255646,77.675453 96.060730,78.268486 95.865814,78.861511 
	C95.865814,78.861511 95.899811,78.869621 95.879623,78.856743 
z"/>
<path fill="#E27E41" opacity="1.000000" stroke="none" 
	d="
M96.138962,78.924530 
	C96.060730,78.268486 96.255646,77.675453 96.657967,76.835083 
	C96.890442,77.151520 96.915512,77.715294 96.948532,78.700333 
	C96.775024,79.076912 96.593567,79.032234 96.138962,78.924530 
z"/>
</svg>